<svg width="20" height="20" viewBox="0 0 20 20" fill="none" xmlns="http://www.w3.org/2000/svg">
<path d="M5.33472 13.9876L5.81763 13.4138L5.33472 13.9876ZM3.29069 8.54296L2.55733 8.70005L3.29069 8.54296ZM5.20073 13.8694L5.70993 13.3188L5.20073 13.8694ZM17.4406 8.95195L16.7072 8.79486L17.4406 8.95195ZM15.8546 13.6311L15.3 13.1262L15.8546 13.6311ZM15.222 14.1893L14.7916 13.575L15.222 14.1893ZM17.3832 5.62982L17.9277 5.11409L17.3832 5.62982ZM17.6526 6.01205L16.9853 6.35448L17.6526 6.01205ZM2.51723 1.50295C2.4269 1.09871 2.02597 0.844227 1.62173 0.934554C1.21748 1.02488 0.963002 1.42581 1.05333 1.83005L2.51723 1.50295ZM2.56929 5.92528H14.7785V4.42528H2.56929V5.92528ZM10.7854 14.0744H10.4095V15.5744H10.7854V14.0744ZM4.02405 8.38586L3.30266 5.01818L1.83593 5.33237L2.55733 8.70005L4.02405 8.38586ZM10.4095 14.0744C9.02956 14.0744 8.06649 14.0729 7.32157 13.9761C6.6017 13.8825 6.16754 13.7083 5.81763 13.4138L4.85182 14.5615C5.49623 15.1038 6.23931 15.348 7.12815 15.4635C7.99196 15.5759 9.06909 15.5744 10.4095 15.5744V14.0744ZM2.55733 8.70005C2.87093 10.164 3.11746 11.3196 3.41102 12.2168C3.70871 13.1266 4.07959 13.8542 4.69152 14.4201L5.70993 13.3188C5.36284 12.9978 5.09571 12.5421 4.83664 11.7503C4.57344 10.9459 4.34446 9.88164 4.02405 8.38586L2.55733 8.70005ZM5.81763 13.4138C5.78116 13.3831 5.74525 13.3514 5.70993 13.3188L4.69152 14.4201C4.74391 14.4685 4.79736 14.5157 4.85182 14.5615L5.81763 13.4138ZM16.7072 8.79486C16.4301 10.0888 16.2321 11.0094 16.0122 11.7138C15.7956 12.4078 15.5778 12.8211 15.3 13.1262L16.4092 14.136C16.8947 13.6027 17.1957 12.9566 17.4441 12.1608C17.6893 11.3754 17.9027 10.3756 18.174 9.10905L16.7072 8.79486ZM10.7854 15.5744C11.945 15.5744 12.877 15.5755 13.6305 15.4903C14.4035 15.4028 15.0601 15.2184 15.6523 14.8036L14.7916 13.575C14.4772 13.7953 14.0921 13.9285 13.4618 13.9998C12.812 14.0733 11.979 14.0744 10.7854 14.0744V15.5744ZM15.3 13.1262C15.1441 13.2974 14.9735 13.4476 14.7916 13.575L15.6523 14.8036C15.927 14.6111 16.1806 14.387 16.4092 14.136L15.3 13.1262ZM14.7785 5.92528C15.525 5.92528 16.0079 5.92692 16.3615 5.9752C16.6942 6.02062 16.7891 6.09324 16.8386 6.14554L17.9277 5.11409C17.5468 4.71185 17.0641 4.5572 16.5644 4.48899C16.0857 4.42363 15.4815 4.42528 14.7785 4.42528V5.92528ZM18.174 9.10905C18.3392 8.33751 18.4772 7.69877 18.5299 7.1822C18.5836 6.65725 18.564 6.14529 18.3199 5.66961L16.9853 6.35448C17.036 6.45313 17.0793 6.62259 17.0377 7.02975C16.9953 7.44529 16.8798 7.98934 16.7072 8.79486L18.174 9.10905ZM16.8386 6.14554C16.8943 6.20427 16.9442 6.27431 16.9853 6.35448L18.3199 5.66961C18.2158 5.46683 18.0842 5.27931 17.9277 5.11409L16.8386 6.14554ZM3.30124 5.01173L2.51723 1.50295L1.05333 1.83005L1.83734 5.33883L3.30124 5.01173Z" fill="white"/>
<path d="M8.11201 17.4562C8.11201 18.1108 7.58137 18.6414 6.9268 18.6414C6.27222 18.6414 5.74158 18.1108 5.74158 17.4562C5.74158 16.8016 6.27222 16.271 6.9268 16.271C7.58137 16.271 8.11201 16.8016 8.11201 17.4562Z" fill="white"/>
<path d="M15.2233 17.4562C15.2233 18.1108 14.6927 18.6414 14.0381 18.6414C13.3835 18.6414 12.8529 18.1108 12.8529 17.4562C12.8529 16.8016 13.3835 16.271 14.0381 16.271C14.6927 16.271 15.2233 16.8016 15.2233 17.4562Z" fill="white"/>
</svg>
