<svg width="16" height="16" viewBox="0 0 16 16" fill="none" xmlns="http://www.w3.org/2000/svg">
<g clip-path="url(#clip0_463_6027)">
<path d="M9.85382 13.1335L9.26365 12.6707L9.85382 13.1335ZM6.1461 13.1335L5.55592 13.5963L6.1461 13.1335ZM7.99996 14.6702V13.9202V14.6702ZM12.5833 6.40563C12.5833 7.15426 12.1861 8.1999 11.5182 9.38077C10.8669 10.5323 10.0223 11.7033 9.26365 12.6707L10.444 13.5963C11.2252 12.6001 12.1204 11.3629 12.8238 10.1193C13.5106 8.90498 14.0833 7.56849 14.0833 6.40563H12.5833ZM6.73627 12.6707C5.97763 11.7033 5.13307 10.5323 4.48173 9.38077C3.81379 8.1999 3.41663 7.15426 3.41663 6.40563H1.91663C1.91663 7.56849 2.48928 8.90498 3.17612 10.1193C3.87956 11.3629 4.77473 12.6001 5.55592 13.5963L6.73627 12.6707ZM3.41663 6.40563C3.41663 3.59747 5.5195 1.4165 7.99996 1.4165V-0.0834961C4.58938 -0.0834961 1.91663 2.87453 1.91663 6.40563H3.41663ZM7.99996 1.4165C10.4804 1.4165 12.5833 3.59747 12.5833 6.40563H14.0833C14.0833 2.87453 11.4105 -0.0834961 7.99996 -0.0834961V1.4165ZM9.26365 12.6707C8.84552 13.2039 8.58862 13.5274 8.36465 13.7308C8.17279 13.9051 8.08193 13.9202 7.99996 13.9202V15.4202C8.56681 15.4202 9.0012 15.1791 9.37323 14.8411C9.71314 14.5324 10.0588 14.0876 10.444 13.5963L9.26365 12.6707ZM5.55592 13.5963C5.94116 14.0876 6.28678 14.5324 6.62669 14.8411C6.99872 15.1791 7.43311 15.4202 7.99996 15.4202V13.9202C7.91799 13.9202 7.82713 13.9051 7.63527 13.7308C7.41129 13.5274 7.15439 13.2039 6.73627 12.6707L5.55592 13.5963ZM5.24996 6.6665C5.24996 8.18529 6.48118 9.4165 7.99996 9.4165V7.9165C7.3096 7.9165 6.74996 7.35686 6.74996 6.6665H5.24996ZM7.99996 9.4165C9.51874 9.4165 10.75 8.18529 10.75 6.6665H9.24996C9.24996 7.35686 8.69031 7.9165 7.99996 7.9165V9.4165ZM10.75 6.6665C10.75 5.14772 9.51874 3.9165 7.99996 3.9165V5.4165C8.69031 5.4165 9.24996 5.97615 9.24996 6.6665H10.75ZM7.99996 3.9165C6.48118 3.9165 5.24996 5.14772 5.24996 6.6665H6.74996C6.74996 5.97615 7.3096 5.4165 7.99996 5.4165V3.9165Z" fill="#545962"/>
<path d="M9.85382 13.1335L9.38168 12.7632L9.85382 13.1335ZM6.1461 13.1335L5.67396 13.5037L6.1461 13.1335ZM7.99996 14.6702V14.0702V14.6702ZM12.7333 6.40563C12.7333 7.19568 12.3186 8.27041 11.6487 9.45462C10.9922 10.6154 10.1426 11.793 9.38168 12.7632L10.326 13.5037C11.1049 12.5104 11.995 11.2798 12.6932 10.0454C13.3782 8.83447 13.9333 7.52707 13.9333 6.40563H12.7333ZM6.61824 12.7632C5.85734 11.793 5.00771 10.6154 4.35117 9.45462C3.68134 8.27041 3.26663 7.19568 3.26663 6.40563H2.06663C2.06663 7.52706 2.62173 8.83447 3.30668 10.0454C4.00491 11.2798 4.89502 12.5104 5.67396 13.5037L6.61824 12.7632ZM3.26663 6.40563C3.26663 3.52518 5.42649 1.2665 7.99996 1.2665V0.0665039C4.68239 0.0665039 2.06663 2.94682 2.06663 6.40563H3.26663ZM7.99996 1.2665C10.5734 1.2665 12.7333 3.52518 12.7333 6.40563H13.9333C13.9333 2.94682 11.3175 0.0665039 7.99996 0.0665039V1.2665ZM9.38168 12.7632C8.96685 13.2922 8.70108 13.6279 8.46551 13.8419C8.25563 14.0325 8.13042 14.0702 7.99996 14.0702V15.2702C8.51832 15.2702 8.91836 15.0517 9.27237 14.7301C9.60069 14.4319 9.93743 13.9992 10.326 13.5037L9.38168 12.7632ZM5.67396 13.5037C6.06248 13.9992 6.39923 14.4319 6.72755 14.7301C7.08156 15.0517 7.4816 15.2702 7.99996 15.2702V14.0702C7.8695 14.0702 7.74429 14.0325 7.53441 13.8419C7.29884 13.6279 7.03307 13.2922 6.61824 12.7632L5.67396 13.5037ZM5.39996 6.6665C5.39996 8.10244 6.56402 9.2665 7.99996 9.2665V8.0665C7.22676 8.0665 6.59996 7.4397 6.59996 6.6665H5.39996ZM7.99996 9.2665C9.4359 9.2665 10.6 8.10244 10.6 6.6665H9.39996C9.39996 7.4397 8.77316 8.0665 7.99996 8.0665V9.2665ZM10.6 6.6665C10.6 5.23056 9.4359 4.0665 7.99996 4.0665V5.2665C8.77316 5.2665 9.39996 5.8933 9.39996 6.6665H10.6ZM7.99996 4.0665C6.56402 4.0665 5.39996 5.23056 5.39996 6.6665H6.59996C6.59996 5.8933 7.22676 5.2665 7.99996 5.2665V4.0665Z" fill="#545962"/>
</g>
<defs>
<clipPath id="clip0_463_6027">
<rect width="16" height="16" fill="white"/>
</clipPath>
</defs>
</svg>
