<svg width="20" height="20" viewBox="0 0 20 20" fill="none" xmlns="http://www.w3.org/2000/svg">
<path fill-rule="evenodd" clip-rule="evenodd" d="M2.96164 6.14679C2.6674 6.33068 2.42478 6.5864 2.25657 6.88988C2.08837 7.19335 2.00012 7.53463 2.00012 7.8816V15.9542C2.00012 16.4968 2.21566 17.0171 2.59932 17.4008C2.98297 17.7845 3.50332 18 4.0459 18H16.3205C16.8631 18 17.3835 17.7845 17.7671 17.4008C18.1508 17.0171 18.3663 16.4968 18.3663 15.9542V7.8816C18.3663 7.53463 18.2781 7.19335 18.1099 6.88988C17.9417 6.5864 17.699 6.33068 17.4048 6.14679L11.2675 2.31096C10.9423 2.10775 10.5666 2 10.1832 2C9.7998 2 9.42409 2.10775 9.09896 2.31096L2.96164 6.14679ZM5.63648 8.62524C5.52472 8.55069 5.39937 8.49888 5.26759 8.47277C5.13581 8.44667 5.00017 8.44677 4.86843 8.47308C4.73669 8.49939 4.61142 8.55139 4.49977 8.62612C4.38813 8.70084 4.29229 8.79682 4.21774 8.90858C4.14319 9.02034 4.09138 9.14569 4.06527 9.27748C4.03916 9.40926 4.03927 9.54489 4.06558 9.67664C4.11872 9.9427 4.27537 10.1768 4.50108 10.3273L9.61551 13.396C9.7836 13.5081 9.98115 13.568 10.1832 13.568C10.3853 13.568 10.5828 13.5081 10.7509 13.396L15.8654 10.3273C16.0911 10.1768 16.2477 9.9427 16.3009 9.67664C16.354 9.41057 16.2993 9.13429 16.1487 8.90858C15.9981 8.68287 15.7641 8.52622 15.498 8.47308C15.2319 8.41994 14.9557 8.47468 14.7299 8.62524L10.1832 11.6561L5.63648 8.62524Z" fill="#9BA4B1"/>
</svg>
