<svg width="16" height="17" viewBox="0 0 16 17" fill="none" xmlns="http://www.w3.org/2000/svg">
<path d="M12 5.8335C13.1046 5.8335 14 4.93807 14 3.8335C14 2.72893 13.1046 1.8335 12 1.8335C10.8954 1.8335 10 2.72893 10 3.8335C10 4.93807 10.8954 5.8335 12 5.8335Z" stroke="#545962" stroke-width="1.5" stroke-linecap="round" stroke-linejoin="round"/>
<path d="M4 10.5C5.10457 10.5 6 9.60457 6 8.5C6 7.39543 5.10457 6.5 4 6.5C2.89543 6.5 2 7.39543 2 8.5C2 9.60457 2.89543 10.5 4 10.5Z" stroke="#545962" stroke-width="1.5" stroke-linecap="round" stroke-linejoin="round"/>
<path d="M12 15.1665C13.1046 15.1665 14 14.2711 14 13.1665C14 12.0619 13.1046 11.1665 12 11.1665C10.8954 11.1665 10 12.0619 10 13.1665C10 14.2711 10.8954 15.1665 12 15.1665Z" stroke="#545962" stroke-width="1.5" stroke-linecap="round" stroke-linejoin="round"/>
<path d="M10.2732 4.83984L5.72656 7.49318M5.72656 9.50651L10.2799 12.1598L5.72656 9.50651Z" stroke="#545962" stroke-width="1.5" stroke-linecap="round" stroke-linejoin="round"/>
</svg>
