<svg width="18" height="19" viewBox="0 0 18 19" fill="none" xmlns="http://www.w3.org/2000/svg">
<path d="M4.33472 13.9879L4.81763 13.414L4.33472 13.9879ZM2.29069 8.5432L1.55733 8.7003L2.29069 8.5432ZM4.20073 13.8697L4.70993 13.319L4.20073 13.8697ZM16.4406 8.9522L15.7072 8.7951L16.4406 8.9522ZM14.8546 13.6313L14.3 13.1264L14.8546 13.6313ZM14.222 14.1895L13.7916 13.5753L14.222 14.1895ZM16.3832 5.63006L16.9277 5.11434L16.3832 5.63006ZM16.6526 6.01229L15.9853 6.35472L16.6526 6.01229ZM1.51723 1.5032C1.4269 1.09895 1.02597 0.844471 0.621728 0.934798C0.217483 1.02512 -0.0369983 1.42605 0.053328 1.8303L1.51723 1.5032ZM1.56929 5.92552H13.7785V4.42552H1.56929V5.92552ZM9.78536 14.0746H9.40946V15.5746H9.78536V14.0746ZM3.02405 8.38611L2.30266 5.01843L0.835931 5.33261L1.55733 8.7003L3.02405 8.38611ZM9.40946 14.0746C8.02956 14.0746 7.06649 14.0732 6.32157 13.9763C5.6017 13.8827 5.16754 13.7085 4.81763 13.414L3.85182 14.5617C4.49623 15.104 5.23931 15.3482 6.12815 15.4638C6.99196 15.5761 8.06909 15.5746 9.40946 15.5746V14.0746ZM1.55733 8.7003C1.87093 10.1643 2.11746 11.3198 2.41102 12.217C2.70871 13.1268 3.07959 13.8544 3.69152 14.4203L4.70993 13.319C4.36284 12.998 4.09571 12.5423 3.83664 11.7505C3.57344 10.9461 3.34446 9.88188 3.02405 8.38611L1.55733 8.7003ZM4.81763 13.414C4.78116 13.3833 4.74525 13.3517 4.70993 13.319L3.69152 14.4203C3.74391 14.4687 3.79736 14.5159 3.85182 14.5617L4.81763 13.414ZM15.7072 8.7951C15.4301 10.089 15.2321 11.0096 15.0122 11.7141C14.7956 12.4081 14.5778 12.8213 14.3 13.1264L15.4092 14.1362C15.8947 13.603 16.1957 12.9569 16.4441 12.161C16.6893 11.3756 16.9027 10.3759 17.174 9.10929L15.7072 8.7951ZM9.78536 15.5746C10.945 15.5746 11.877 15.5758 12.6305 15.4905C13.4035 15.403 14.0601 15.2187 14.6523 14.8038L13.7916 13.5753C13.4772 13.7955 13.0921 13.9287 12.4618 14C11.812 14.0735 10.979 14.0746 9.78536 14.0746V15.5746ZM14.3 13.1264C14.1441 13.2976 13.9735 13.4479 13.7916 13.5753L14.6523 14.8038C14.927 14.6114 15.1806 14.3873 15.4092 14.1362L14.3 13.1264ZM13.7785 5.92552C14.525 5.92552 15.0079 5.92717 15.3615 5.97544C15.6942 6.02087 15.7891 6.09349 15.8386 6.14579L16.9277 5.11434C16.5468 4.71209 16.0641 4.55744 15.5644 4.48923C15.0857 4.42387 14.4815 4.42552 13.7785 4.42552V5.92552ZM17.174 9.10929C17.3392 8.33776 17.4772 7.69901 17.5299 7.18244C17.5836 6.65749 17.564 6.14553 17.3199 5.66986L15.9853 6.35472C16.036 6.45337 16.0793 6.62284 16.0377 7.02999C15.9953 7.44553 15.8798 7.98958 15.7072 8.7951L17.174 9.10929ZM15.8386 6.14579C15.8943 6.20451 15.9442 6.27455 15.9853 6.35472L17.3199 5.66986C17.2158 5.46707 17.0842 5.27955 16.9277 5.11434L15.8386 6.14579ZM2.30124 5.01197L1.51723 1.5032L0.053328 1.8303L0.837344 5.33907L2.30124 5.01197Z" fill="#1A1F26"/>
<path d="M7.11201 17.4562C7.11201 18.1108 6.58137 18.6414 5.9268 18.6414C5.27222 18.6414 4.74158 18.1108 4.74158 17.4562C4.74158 16.8016 5.27222 16.271 5.9268 16.271C6.58137 16.271 7.11201 16.8016 7.11201 17.4562Z" fill="#1A1F26"/>
<path d="M14.2233 17.4562C14.2233 18.1108 13.6927 18.6414 13.0381 18.6414C12.3835 18.6414 11.8529 18.1108 11.8529 17.4562C11.8529 16.8016 12.3835 16.271 13.0381 16.271C13.6927 16.271 14.2233 16.8016 14.2233 17.4562Z" fill="#1A1F26"/>
</svg>
