<svg width="48" height="49" viewBox="0 0 48 49" fill="none" xmlns="http://www.w3.org/2000/svg">
<g clip-path="url(#clip0_601_239)">
<path d="M48 24.5C48 11.2452 37.2548 0.5 24 0.5C10.7452 0.5 0 11.2452 0 24.5C0 37.7548 10.7452 48.5 24 48.5C37.2548 48.5 48 37.7548 48 24.5Z" fill="#FAFBFC"/>
<path fill-rule="evenodd" clip-rule="evenodd" d="M20.4 32.9001H32.4C33.0365 32.9001 33.647 32.6472 34.0971 32.1972C34.5471 31.7471 34.8 31.1366 34.8 30.5001V23.3001C34.8 22.6636 34.5471 22.0531 34.0971 21.603C33.647 21.153 33.0365 20.9001 32.4 20.9001H30H20.4C19.7635 20.9001 19.153 21.153 18.7029 21.603C18.2529 22.0531 18 22.6636 18 23.3001V28.1001V30.5001C18 31.1366 18.2529 31.7471 18.7029 32.1972C19.153 32.6472 19.7635 32.9001 20.4 32.9001ZM28.0971 28.5972C28.5471 28.1471 28.8 27.5366 28.8 26.9001C28.8 26.2636 28.5471 25.6531 28.0971 25.203C27.647 24.753 27.0365 24.5001 26.4 24.5001C25.7635 24.5001 25.153 24.753 24.7029 25.203C24.2529 25.6531 24 26.2636 24 26.9001C24 27.5366 24.2529 28.1471 24.7029 28.5972C25.153 29.0472 25.7635 29.3001 26.4 29.3001C27.0365 29.3001 27.647 29.0472 28.0971 28.5972Z" fill="#BFDBFF"/>
<path d="M30 20.9001V18.5001C30 17.8636 29.7471 17.2531 29.2971 16.803C28.847 16.353 28.2365 16.1001 27.6 16.1001H15.6C14.9635 16.1001 14.353 16.353 13.9029 16.803C13.4529 17.2531 13.2 17.8636 13.2 18.5001V25.7001C13.2 26.3366 13.4529 26.9471 13.9029 27.3972C14.353 27.8472 14.9635 28.1001 15.6 28.1001H18M30 20.9001H32.4M30 20.9001H20.4M18 28.1001V23.3001M18 28.1001V30.5001M32.4 20.9001C33.0365 20.9001 33.647 21.153 34.0971 21.603C34.5471 22.0531 34.8 22.6636 34.8 23.3001V30.5001C34.8 31.1366 34.5471 31.7471 34.0971 32.1972C33.647 32.6472 33.0365 32.9001 32.4 32.9001H20.4C19.7635 32.9001 19.153 32.6472 18.7029 32.1972C18.2529 31.7471 18 31.1366 18 30.5001M32.4 20.9001H20.4M20.4 20.9001C19.7635 20.9001 19.153 21.153 18.7029 21.603C18.2529 22.0531 18 22.6636 18 23.3001M18 23.3001V30.5001M28.8 26.9001C28.8 27.5366 28.5471 28.1471 28.0971 28.5972C27.647 29.0472 27.0365 29.3001 26.4 29.3001C25.7635 29.3001 25.153 29.0472 24.7029 28.5972C24.2529 28.1471 24 27.5366 24 26.9001C24 26.2636 24.2529 25.6531 24.7029 25.203C25.153 24.753 25.7635 24.5001 26.4 24.5001C27.0365 24.5001 27.647 24.753 28.0971 25.203C28.5471 25.6531 28.8 26.2636 28.8 26.9001Z" stroke="black" stroke-width="1.2" stroke-linecap="round" stroke-linejoin="round"/>
</g>
<defs>
<clipPath id="clip0_601_239">
<rect width="48" height="48" fill="white" transform="translate(0 0.5)"/>
</clipPath>
</defs>
</svg>
