<svg width="49" height="48" viewBox="0 0 49 48" fill="none" xmlns="http://www.w3.org/2000/svg">
<g clip-path="url(#clip0_112_1085)">
<path d="M48.6667 24C48.6667 10.7452 37.9216 0 24.6667 0C11.4119 0 0.666718 10.7452 0.666718 24C0.666718 37.2548 11.4119 48 24.6667 48C37.9216 48 48.6667 37.2548 48.6667 24Z" fill="white"/>
<path fill-rule="evenodd" clip-rule="evenodd" d="M21.0667 32.4H33.0667C33.7032 32.4 34.3137 32.1471 34.7638 31.697C35.2139 31.2469 35.4667 30.6365 35.4667 30V22.8C35.4667 22.1635 35.2139 21.553 34.7638 21.1029C34.3137 20.6528 33.7032 20.4 33.0667 20.4H30.6667H21.0667C20.4302 20.4 19.8197 20.6528 19.3697 21.1029C18.9196 21.553 18.6667 22.1635 18.6667 22.8V27.6V30C18.6667 30.6365 18.9196 31.2469 19.3697 31.697C19.8197 32.1471 20.4302 32.4 21.0667 32.4ZM28.7638 28.097C29.2139 27.6469 29.4667 27.0365 29.4667 26.4C29.4667 25.7635 29.2139 25.153 28.7638 24.7029C28.3137 24.2528 27.7032 24 27.0667 24C26.4302 24 25.8197 24.2528 25.3697 24.7029C24.9196 25.153 24.6667 25.7635 24.6667 26.4C24.6667 27.0365 24.9196 27.6469 25.3697 28.097C25.8197 28.5471 26.4302 28.8 27.0667 28.8C27.7032 28.8 28.3137 28.5471 28.7638 28.097Z" fill="#BFDBFF"/>
<path d="M30.6667 20.4V18C30.6667 17.3635 30.4139 16.753 29.9638 16.3029C29.5137 15.8528 28.9032 15.6 28.2667 15.6H16.2667C15.6302 15.6 15.0197 15.8528 14.5697 16.3029C14.1196 16.753 13.8667 17.3635 13.8667 18V25.2C13.8667 25.8365 14.1196 26.4469 14.5697 26.897C15.0197 27.3471 15.6302 27.6 16.2667 27.6H18.6667M30.6667 20.4H33.0667M30.6667 20.4H21.0667M18.6667 27.6V22.8M18.6667 27.6V30M33.0667 20.4C33.7032 20.4 34.3137 20.6528 34.7638 21.1029C35.2139 21.553 35.4667 22.1635 35.4667 22.8V30C35.4667 30.6365 35.2139 31.2469 34.7638 31.697C34.3137 32.1471 33.7032 32.4 33.0667 32.4H21.0667C20.4302 32.4 19.8197 32.1471 19.3697 31.697C18.9196 31.2469 18.6667 30.6365 18.6667 30M33.0667 20.4H21.0667M21.0667 20.4C20.4302 20.4 19.8197 20.6528 19.3697 21.1029C18.9196 21.553 18.6667 22.1635 18.6667 22.8M18.6667 22.8V30M29.4667 26.4C29.4667 27.0365 29.2139 27.6469 28.7638 28.097C28.3137 28.5471 27.7032 28.8 27.0667 28.8C26.4302 28.8 25.8197 28.5471 25.3697 28.097C24.9196 27.6469 24.6667 27.0365 24.6667 26.4C24.6667 25.7635 24.9196 25.153 25.3697 24.7029C25.8197 24.2528 26.4302 24 27.0667 24C27.7032 24 28.3137 24.2528 28.7638 24.7029C29.2139 25.153 29.4667 25.7635 29.4667 26.4Z" stroke="black" stroke-width="1.2" stroke-linecap="round" stroke-linejoin="round"/>
</g>
<defs>
<clipPath id="clip0_112_1085">
<rect width="48" height="48" fill="white" transform="translate(0.666718)"/>
</clipPath>
</defs>
</svg>
