<svg width="16" height="16" viewBox="0 0 16 16" fill="none" xmlns="http://www.w3.org/2000/svg">
<path d="M3.28595 5.28595L3.81628 4.75562V4.75562L3.28595 5.28595ZM12.714 5.28595L13.2444 5.81628H13.2444L12.714 5.28595ZM1.99999 4L1.46966 4.53033H1.46966L1.99999 4ZM14 4L13.4697 3.46967L13.4697 3.46967L14 4ZM14.0301 12.626L13.4233 12.1851L13.4233 12.1851L14.0301 12.626ZM13.2926 13.3634L12.8518 12.7566L13.2926 13.3634ZM13.2926 2.63661L13.7335 2.02985L13.7335 2.02985L13.2926 2.63661ZM14.0301 3.37405L13.4233 3.81489V3.81489L14.0301 3.37405ZM2.70738 2.63661L2.26654 2.02985L2.26654 2.02985L2.70738 2.63661ZM1.96994 3.37405L1.36318 2.93321L1.36318 2.93321L1.96994 3.37405ZM1.96994 12.626L2.57671 12.1851H2.57671L1.96994 12.626ZM2.70738 13.3634L2.26654 13.9702H2.26654L2.70738 13.3634ZM3.81628 4.75562L2.61121 3.55055L1.55055 4.61121L2.75562 5.81628L3.81628 4.75562ZM13.3888 3.55055L12.1837 4.75562L13.2444 5.81628L14.4494 4.61121L13.3888 3.55055ZM2.75562 5.81628C3.85174 6.9124 4.72605 7.78897 5.5036 8.38222C6.29846 8.98868 7.07972 9.36929 7.99999 9.36929V7.86929C7.53956 7.86929 7.0749 7.69434 6.41347 7.18969C5.73474 6.67183 4.94238 5.88173 3.81628 4.75562L2.75562 5.81628ZM12.1837 4.75562C11.0576 5.88173 10.2653 6.67183 9.58652 7.18969C8.92508 7.69434 8.46043 7.86929 7.99999 7.86929V9.36929C8.92027 9.36929 9.70153 8.98868 10.4964 8.38222C11.2739 7.78897 12.1483 6.9124 13.2444 5.81628L12.1837 4.75562ZM3.81628 4.75562L2.53032 3.46967L1.46966 4.53033L2.75562 5.81628L3.81628 4.75562ZM13.4697 3.46967L12.1837 4.75562L13.2444 5.81628L14.5303 4.53033L13.4697 3.46967ZM7.33333 2.75H8.66666V1.25H7.33333V2.75ZM8.66666 13.25H7.33333V14.75H8.66666V13.25ZM13.9167 8C13.9167 9.26662 13.9156 10.1563 13.8414 10.841C13.7688 11.5117 13.6332 11.8962 13.4233 12.1851L14.6368 13.0668C15.0635 12.4795 15.2462 11.8009 15.3327 11.0026C15.4177 10.2184 15.4167 9.2332 15.4167 8H13.9167ZM8.66666 14.75C9.89987 14.75 10.885 14.751 11.6693 14.6661C12.4676 14.5796 13.1462 14.3968 13.7335 13.9702L12.8518 12.7566C12.5628 12.9666 12.1784 13.1021 11.5077 13.1748C10.823 13.249 9.93328 13.25 8.66666 13.25V14.75ZM13.4233 12.1851C13.2639 12.4044 13.0711 12.5973 12.8518 12.7566L13.7335 13.9702C14.0801 13.7183 14.385 13.4134 14.6368 13.0668L13.4233 12.1851ZM8.66666 2.75C9.93328 2.75 10.823 2.75103 11.5077 2.82521C12.1784 2.89788 12.5628 3.03344 12.8518 3.24337L13.7335 2.02985C13.1462 1.60317 12.4676 1.42043 11.6693 1.33394C10.885 1.24897 9.89987 1.25 8.66666 1.25V2.75ZM12.8518 3.24337C13.0711 3.40271 13.264 3.59558 13.4233 3.81489L14.6368 2.93321C14.385 2.58656 14.0801 2.28171 13.7335 2.02985L12.8518 3.24337ZM7.33333 1.25C6.10012 1.25 5.11498 1.24897 4.33072 1.33394C3.53242 1.42043 2.85381 1.60317 2.26654 2.02985L3.14822 3.24337C3.43717 3.03344 3.82162 2.89788 4.49229 2.82521C5.17699 2.75103 6.06671 2.75 7.33333 2.75V1.25ZM2.26654 2.02985C1.91988 2.28171 1.61503 2.58656 1.36318 2.93321L2.5767 3.81489C2.73604 3.59558 2.92891 3.40271 3.14822 3.24337L2.26654 2.02985ZM2.08333 8C2.08333 6.90628 2.08382 6.09057 2.13295 5.4402C2.18195 4.7916 2.2757 4.37861 2.423 4.07292L1.0717 3.42179C0.804977 3.97531 0.691717 4.60573 0.637212 5.3272C0.582841 6.04689 0.583328 6.92789 0.583328 8H2.08333ZM2.423 4.07292C2.46787 3.9798 2.51868 3.89475 2.5767 3.81489L1.36318 2.93321C1.25109 3.08748 1.15451 3.24991 1.0717 3.42179L2.423 4.07292ZM2.53032 3.46967L2.27768 3.21702L1.21702 4.27768L1.46966 4.53033L2.53032 3.46967ZM15.4167 8C15.4167 6.92789 15.4171 6.04689 15.3628 5.3272C15.3083 4.60573 15.195 3.97531 14.9283 3.42178L13.577 4.07292C13.7243 4.37861 13.818 4.7916 13.867 5.44019C13.9162 6.09057 13.9167 6.90628 13.9167 8H15.4167ZM14.9283 3.42178C14.8455 3.24991 14.7489 3.08748 14.6368 2.93321L13.4233 3.81489C13.4813 3.89475 13.5321 3.97979 13.577 4.07292L14.9283 3.42178ZM14.5303 4.53033L14.783 4.27768L13.7223 3.21702L13.4697 3.46967L14.5303 4.53033ZM0.583328 8C0.583328 9.2332 0.5823 10.2184 0.667271 11.0026C0.753763 11.8009 0.936506 12.4795 1.36318 13.0668L2.57671 12.1851C2.36677 11.8962 2.23121 11.5117 2.15854 10.841C2.08436 10.1563 2.08333 9.26661 2.08333 8H0.583328ZM7.33333 13.25C6.06671 13.25 5.177 13.249 4.49229 13.1748C3.82162 13.1021 3.43717 12.9666 3.14822 12.7566L2.26654 13.9702C2.85381 14.3968 3.53243 14.5796 4.33072 14.6661C5.11498 14.751 6.10013 14.75 7.33333 14.75V13.25ZM1.36318 13.0668C1.61504 13.4134 1.91989 13.7183 2.26654 13.9702L3.14822 12.7566C2.92891 12.5973 2.73604 12.4044 2.57671 12.1851L1.36318 13.0668Z" fill="#545962"/>
</svg>
