<svg width="20" height="20" viewBox="0 0 20 20" fill="none" xmlns="http://www.w3.org/2000/svg">
<path fill-rule="evenodd" clip-rule="evenodd" d="M0.0499878 0.0498047H19.95V19.9498H0.0499878V0.0498047Z" fill="white" fill-opacity="0.01" stroke="white" stroke-width="0.1"/>
<path fill-rule="evenodd" clip-rule="evenodd" d="M12.127 4.375H14.912V1H12.127C9.977 1 8.227 2.766 8.227 4.938V6.624H6V10H8.228V19H11.569V10H14.354L14.912 6.624H11.569V4.938C11.569 4.632 11.825 4.375 12.127 4.375Z" fill="#1A1F26"/>
<path d="M16.75 1H3.25C2.01 1 1 2.01 1 3.25V16.75C1 17.99 2.01 19 3.25 19H16.75C17.99 19 19 17.99 19 16.75V3.25C19 2.01 17.99 1 16.75 1Z" fill="#545962"/>
<path d="M16.188 9.99998H13.375V7.74998C13.375 7.12898 13.879 7.18698 14.5 7.18698H15.625V4.37598H13.375C12.9318 4.37571 12.4929 4.4628 12.0834 4.63225C11.6738 4.80171 11.3017 5.05021 10.9883 5.36355C10.6748 5.6769 10.4262 6.04894 10.2567 6.45842C10.0871 6.86789 9.99987 7.30678 10 7.74998V9.99998H7.75V12.813H10V19H13.375V12.812H15.063L16.187 9.99998H16.188Z" fill="#FAFAFA"/>
</svg>
