<svg width="20" height="20" viewBox="0 0 20 20" fill="none" xmlns="http://www.w3.org/2000/svg">
<path fill-rule="evenodd" clip-rule="evenodd" d="M0.0499878 0.0498047H19.95V19.9498H0.0499878V0.0498047Z" fill="white" fill-opacity="0.01" stroke="white" stroke-width="0.1"/>
<path d="M18.943 5.58389C18.8966 4.57161 18.7361 3.88128 18.5007 3.2775C18.2632 2.64417 17.8885 2.06889 17.4051 1.59494C16.9301 1.1115 16.3569 0.736778 15.7225 0.498222C15.1187 0.263889 14.4294 0.103444 13.4172 0.057C12.4028 0.0105556 12.0798 0 9.5 0C6.92022 0 6.59722 0.0105556 5.58389 0.057C4.57056 0.103444 3.88022 0.263889 3.27644 0.499278C2.64311 0.736778 2.06783 1.1115 1.59389 1.59494C1.11044 2.06994 0.735722 2.64311 0.497167 3.2775C0.263889 3.88128 0.103444 4.57056 0.057 5.58283C0.0105556 6.59722 0 6.92022 0 9.5C0 12.0808 0.0105556 12.4049 0.057 13.4182C0.103444 14.4294 0.263889 15.1198 0.499278 15.7236C0.737833 16.3569 1.1115 16.9322 1.59494 17.4061C2.06994 17.8896 2.64311 18.2632 3.2775 18.5018C3.88128 18.7372 4.57161 18.8976 5.58389 18.9441C6.59722 18.9894 6.92022 19 9.5 19C12.0798 19 12.4038 18.9894 13.4161 18.943C14.4284 18.8966 15.1187 18.7361 15.7225 18.5007C16.9997 18.0078 18.0078 16.9987 18.5007 15.7225C18.7361 15.1187 18.8966 14.4284 18.943 13.4172C18.9894 12.4028 19 12.0798 19 9.5C19 6.92022 18.9894 6.59722 18.943 5.58389ZM17.233 13.3391C17.1908 14.2648 17.0356 14.7683 16.9058 15.1029C16.5859 15.9315 15.9315 16.5859 15.1029 16.9058C14.7683 17.0356 14.2648 17.1908 13.3391 17.233C12.3363 17.2784 12.0365 17.2879 9.5 17.2879C6.9635 17.2879 6.66267 17.2784 5.66094 17.233C4.73522 17.1908 4.23172 17.0356 3.89711 16.9058C3.48544 16.7538 3.11072 16.511 2.80461 16.1954C2.489 15.8893 2.24622 15.5156 2.09422 15.1029C1.96439 14.7683 1.80922 14.2648 1.767 13.3391C1.72161 12.3363 1.71211 12.0365 1.71211 9.5C1.71211 6.9635 1.72161 6.66267 1.767 5.66094C1.80922 4.73522 1.96439 4.23172 2.09422 3.89817C2.24622 3.48439 2.489 3.11072 2.80461 2.80461C3.11072 2.489 3.48439 2.24622 3.89711 2.09422C4.23172 1.96439 4.73522 1.80922 5.66094 1.767C6.66372 1.72161 6.9635 1.71211 9.5 1.71211C12.0365 1.71211 12.3373 1.72161 13.3391 1.767C14.2648 1.80922 14.7683 1.96439 15.1018 2.09422C15.5156 2.24622 15.8882 2.489 16.1954 2.80461C16.511 3.11072 16.7538 3.48439 16.9058 3.89711C17.0356 4.23172 17.1908 4.73522 17.233 5.66094C17.2784 6.66372 17.2879 6.9635 17.2879 9.5C17.2879 12.0365 17.2784 12.3373 17.233 13.3391Z" fill="#545962"/>
<path d="M9.49999 4.62109C6.80516 4.62109 4.62122 6.80609 4.62122 9.49987C4.62122 12.1936 6.80622 14.3786 9.49999 14.3786C12.1938 14.3786 14.3788 12.1936 14.3788 9.49987C14.3788 6.80609 12.1938 4.62109 9.49999 4.62109ZM9.49999 12.6665C7.75094 12.6665 6.33333 11.2489 6.33333 9.49987C6.33333 7.75082 7.75094 6.33321 9.49999 6.33321C11.249 6.33321 12.6667 7.75082 12.6667 9.49987C12.6667 11.2489 11.249 12.6665 9.49999 12.6665Z" fill="#545962"/>
<path d="M15.7109 4.42906C15.7109 5.05817 15.2011 5.56906 14.5709 5.56906C13.9418 5.56906 13.4309 5.05817 13.4309 4.42906C13.4309 3.7989 13.9418 3.28906 14.5709 3.28906C15.2011 3.28906 15.7109 3.7989 15.7109 4.42906Z" fill="#545962"/>
</svg>
