<svg width="40" height="40" viewBox="0 0 40 40" fill="none" xmlns="http://www.w3.org/2000/svg">
<rect x="0.5" y="0.5" width="39" height="39" rx="19.5" fill="white"/>
<path d="M13.9674 13.0516C14.0262 12.9927 14.0557 12.9633 14.0816 12.9394C14.7192 12.3535 15.6993 12.3535 16.337 12.9394C16.3629 12.9633 16.3923 12.9927 16.4512 13.0516L17.6664 14.2667C18.3348 14.9351 18.5259 15.9445 18.1482 16.811C17.7705 17.6774 17.9617 18.6868 18.63 19.3552L20.6274 21.3525C21.2958 22.0209 22.3051 22.2121 23.1716 21.8344C24.0381 21.4567 25.0475 21.6478 25.7158 22.3162L26.931 23.5314C26.9899 23.5902 27.0193 23.6197 27.0431 23.6456C27.629 24.2832 27.629 25.2633 27.0431 25.9009C27.0193 25.9269 26.9899 25.9563 26.931 26.0152L26.1924 26.7538C25.5909 27.3553 24.7238 27.6078 23.8934 27.4233C18.2354 26.1659 13.8166 21.7472 12.5593 16.0892C12.3748 15.2588 12.6273 14.3917 13.2288 13.7902L13.9674 13.0516Z" stroke="#545962" stroke-width="1.5"/>
<rect x="0.5" y="0.5" width="39" height="39" rx="19.5" stroke="#EFF1FA"/>
</svg>
