<svg width="48" height="48" viewBox="0 0 48 48" fill="none" xmlns="http://www.w3.org/2000/svg">
<g clip-path="url(#clip0_112_1071)">
<path d="M48 24C48 10.7452 37.2549 0 24 0C10.7452 0 3.05176e-05 10.7452 3.05176e-05 24C3.05176e-05 37.2548 10.7452 48 24 48C37.2549 48 48 37.2548 48 24Z" fill="white"/>
<path d="M16.9 20.0889C16.3477 20.0889 15.9 20.5366 15.9 21.0889V29.6C15.9 31.8092 17.6909 33.6 19.9 33.6H27.7118C29.9209 33.6 31.7118 31.8092 31.7118 29.6V21.0889C31.7118 20.5366 31.2641 20.0889 30.7118 20.0889H27.6225H20.1256H16.9Z" fill="#BFDBFF"/>
<path d="M15.3 21.0889V29.6H16.5V21.0889H15.3ZM19.9 34.2H27.7118V33H19.9V34.2ZM32.3118 29.6V21.0889H31.1118V29.6H32.3118ZM20.1256 19.4889H16.9V20.6889H20.1256V19.4889ZM20.7256 20.0889V18.1485H19.5256V20.0889H20.7256ZM30.7118 19.4889H27.6225V20.6889H30.7118V19.4889ZM27.6225 19.4889H20.1256V20.6889H27.6225V19.4889ZM27.0225 18.1485V20.0889H28.2225V18.1485H27.0225ZM19.5256 20.0889V22.1715H20.7256V20.0889H19.5256ZM27.0225 20.0889V22.1715H28.2225V20.0889H27.0225ZM23.8741 15C25.6129 15 27.0225 16.4096 27.0225 18.1485H28.2225C28.2225 15.7469 26.2757 13.8 23.8741 13.8V15ZM32.3118 21.0889C32.3118 20.2053 31.5954 19.4889 30.7118 19.4889V20.6889C30.9327 20.6889 31.1118 20.868 31.1118 21.0889H32.3118ZM27.7118 34.2C30.2523 34.2 32.3118 32.1405 32.3118 29.6H31.1118C31.1118 31.4778 29.5896 33 27.7118 33V34.2ZM15.3 29.6C15.3 32.1405 17.3595 34.2 19.9 34.2V33C18.0223 33 16.5 31.4778 16.5 29.6H15.3ZM20.7256 18.1485C20.7256 16.4096 22.1352 15 23.8741 15V13.8C21.4725 13.8 19.5256 15.7469 19.5256 18.1485H20.7256ZM16.5 21.0889C16.5 20.868 16.6791 20.6889 16.9 20.6889V19.4889C16.0164 19.4889 15.3 20.2053 15.3 21.0889H16.5Z" fill="black"/>
<path d="M6.68264 24L7.12665 23.5964C7.00873 23.4667 6.83997 23.395 6.66474 23.4003C6.4895 23.4055 6.32532 23.4871 6.21535 23.6237L6.68264 24ZM24.4913 5.4C24.16 5.4 23.8913 5.66863 23.8913 6C23.8913 6.33137 24.16 6.6 24.4913 6.6V5.4ZM2.83274 27.8237C2.62489 28.0817 2.66561 28.4594 2.92368 28.6673C3.18176 28.8751 3.55947 28.8344 3.76733 28.5763L2.83274 27.8237ZM10.056 28.6036C10.2789 28.8488 10.6584 28.8669 10.9036 28.644C11.1488 28.4211 11.1669 28.0417 10.944 27.7964L10.056 28.6036ZM41.7 24C41.7 33.6158 33.9894 41.4 24.4913 41.4V42.6C34.6642 42.6 42.9 34.2664 42.9 24H41.7ZM24.4913 41.4C14.9933 41.4 7.28264 33.6158 7.28264 24H6.08264C6.08264 34.2664 14.3185 42.6 24.4913 42.6V41.4ZM24.4913 6.6C33.9894 6.6 41.7 14.3842 41.7 24H42.9C42.9 13.7336 34.6642 5.4 24.4913 5.4V6.6ZM6.21535 23.6237L2.83274 27.8237L3.76733 28.5763L7.14993 24.3764L6.21535 23.6237ZM6.23864 24.4036L10.056 28.6036L10.944 27.7964L7.12665 23.5964L6.23864 24.4036Z" fill="black"/>
</g>
<defs>
<clipPath id="clip0_112_1071">
<rect width="48" height="48" fill="white"/>
</clipPath>
</defs>
</svg>
