<svg width="20" height="20" viewBox="0 0 20 20" fill="none" xmlns="http://www.w3.org/2000/svg">
<path d="M16.3637 14.4697C16.0708 14.1768 15.5959 14.1768 15.3031 14.4697C15.0102 14.7626 15.0102 15.2374 15.303 15.5303L16.3637 14.4697ZM18.6363 18.8636C18.9292 19.1565 19.4041 19.1565 19.697 18.8636C19.9898 18.5707 19.9898 18.0958 19.697 17.803L18.6363 18.8636ZM15.303 15.5303L18.6363 18.8636L19.697 17.803L16.3637 14.4697L15.303 15.5303ZM9.16666 15.0833C5.43873 15.0833 2.41666 12.0612 2.41666 8.33325H0.916656C0.916656 12.8896 4.61031 16.5833 9.16666 16.5833V15.0833ZM15.9167 8.33325C15.9167 12.0612 12.8946 15.0833 9.16666 15.0833V16.5833C13.723 16.5833 17.4167 12.8896 17.4167 8.33325H15.9167ZM9.16666 1.58325C12.8946 1.58325 15.9167 4.60533 15.9167 8.33325H17.4167C17.4167 3.7769 13.723 0.083252 9.16666 0.083252V1.58325ZM9.16666 0.083252C4.61031 0.083252 0.916656 3.7769 0.916656 8.33325H2.41666C2.41666 4.60533 5.43873 1.58325 9.16666 1.58325V0.083252Z" fill="#545962"/>
</svg>
