<svg width="49" height="48" viewBox="0 0 49 48" fill="none" xmlns="http://www.w3.org/2000/svg">
<rect x="0.333313" width="48" height="48" rx="24" fill="white"/>
<path fill-rule="evenodd" clip-rule="evenodd" d="M30.2537 30.5025H29.149V19.1549H31.3142C33.0661 19.1549 34.7615 19.7749 36.1002 20.905C37.7699 22.3147 38.7333 24.3888 38.7333 26.574V30.5025H37.898" fill="#BFDBFF"/>
<path d="M29.1333 28.5025H29.149V19.1549H31.8332C33.25 19.1549 34.6211 19.6563 35.7037 20.5702L36.6038 21.3302C37.9542 22.4702 38.7333 24.1476 38.7333 25.9149V30.5025H37.898" stroke="#1A1F26" stroke-width="1.2" stroke-linecap="round" stroke-linejoin="round"/>
<path fill-rule="evenodd" clip-rule="evenodd" d="M31.2946 21.4208H33.7337L36.068 23.4103V24.8251H31.2946V21.4208Z" stroke="#1A1F26" stroke-width="0.825" stroke-linecap="round" stroke-linejoin="round"/>
<path fill-rule="evenodd" clip-rule="evenodd" d="M33.9784 33.3394C35.2397 33.3394 36.2621 32.3233 36.2621 31.07C36.2621 29.8165 35.2397 28.8004 33.9784 28.8004C32.717 28.8004 31.6946 29.8165 31.6946 31.07C31.6946 32.3233 32.717 33.3394 33.9784 33.3394Z" fill="#BFDBFF" stroke="#1A1F26" stroke-width="1.2" stroke-linecap="round" stroke-linejoin="round"/>
<path d="M27.7596 16.9792H15.0154C14.4631 16.9792 14.0154 17.427 14.0154 17.9792V29.0757C14.0154 29.628 14.4631 30.0757 15.0154 30.0757H16.6434H24.2252H27.7596C28.3119 30.0757 28.7596 29.628 28.7596 29.0757V17.9792C28.7596 17.427 28.3119 16.9792 27.7596 16.9792Z" fill="#BFDBFF"/>
<path d="M16.3971 30.0757H15.0154C14.4631 30.0757 14.0154 29.628 14.0154 29.0757V26.2228M24.195 30.0757H28.1333C28.6856 30.0757 29.1333 29.628 29.1333 29.0757V17.9792C29.1333 17.427 28.6856 16.9792 28.1333 16.9792H15.0154C14.4631 16.9792 14.0154 17.427 14.0154 17.9792V19.8802" stroke="#1A1F26" stroke-width="1.2" stroke-linecap="round"/>
<path fill-rule="evenodd" clip-rule="evenodd" d="M20.1735 33.3394C21.4349 33.3394 22.4573 32.3233 22.4573 31.07C22.4573 29.8165 21.4349 28.8004 20.1735 28.8004C18.9123 28.8004 17.8897 29.8165 17.8897 31.07C17.8897 32.3233 18.9123 33.3394 20.1735 33.3394Z" fill="#BFDBFF" stroke="#1A1F26" stroke-width="1.2" stroke-linecap="round" stroke-linejoin="round"/>
<path d="M10.8788 21.7081H17.9508" stroke="#1A1F26" stroke-width="1.2" stroke-linecap="round" stroke-linejoin="round"/>
<path d="M9.93329 24.1668H13.2251" stroke="#1A1F26" stroke-width="1.2" stroke-linecap="round" stroke-linejoin="round"/>
</svg>
