<svg width="20" height="20" viewBox="0 0 20 20" fill="none" xmlns="http://www.w3.org/2000/svg">
<path fill-rule="evenodd" clip-rule="evenodd" d="M0.0499878 0.0498047H19.95V19.9498H0.0499878V0.0498047Z" fill="white" fill-opacity="0.01" stroke="white" stroke-width="0.1"/>
<path d="M19.15 3.5C18.6078 2.40667 18.0189 2.20556 16.82 2.12889C15.6222 2.03778 12.6111 2 10.0022 2C7.38889 2 4.37778 2.03778 3.18 2.12889C1.98333 2.20667 1.39333 2.40667 0.846667 3.49889C0.287778 4.58889 0 6.46778 0 9.77333V9.78444C0 13.0767 0.287778 14.9689 0.846667 16.0478C1.39333 17.14 1.98222 17.3378 3.17889 17.43C4.37667 17.5089 7.38889 17.5556 10.0022 17.5556C12.6111 17.5556 15.6222 17.5089 16.8211 17.4311C18.02 17.3389 18.6089 17.1422 19.1511 16.05C19.7156 14.97 20 13.0789 20 9.78667V9.77333C20 6.46667 19.7156 4.58778 19.15 3.49778V3.5Z" fill="#545962"/>
<path d="M7.58667 14.4442V5.88867L13.7933 10.1665L7.58667 14.4442Z" fill="#FAFAFA"/>
</svg>
